# xmcd CD database file generated by Grip 3.2.0
# 
# Track frame offsets:
#       150
#       10955
#       19807
#       29116
#       39740
#       49177
#       60178
#       70421
#       81430
#       91928
#       101167
#       110826
#       124049
#       132971
#       143490
#       157220
#       167767
#       179972
# 
# Disc length: 2551 seconds
# 
# Revision: 1
# Processed by: cddbd v1.5.1PL0 Copyright (c) Steve Scherf et al.
# Submitted via: Grip 3.2.0
# 
DISCID=0909f512
DTITLE=The Beatles - The Beatles - Past Masters Volume One
DYEAR=1988
DGENRE=Pop
TTITLE0=Love me do
TTITLE1=From me to you
TTITLE2=Thank you girl
TTITLE3=She loves you
TTITLE4=I'll get you
TTITLE5=I want to hold your hand
TTITLE6=This boy
TTITLE7=Komm, gib mir deine Hand
TTITLE8=Sie liebt dich
TTITLE9=Long tally sally
TTITLE10=I call your name
TTITLE11=Slow down
TTITLE12=Matchbox
TTITLE13=I feel fine
TTITLE14=She's a woman
TTITLE15=Bad boy
TTITLE16=Yes it is
TTITLE17=I'm down
EXTD=
EXTT0=
EXTT1=
EXTT2=
EXTT3=
EXTT4=
EXTT5=
EXTT6=
EXTT7=
EXTT8=
EXTT9=
EXTT10=
EXTT11=
EXTT12=
EXTT13=
EXTT14=
EXTT15=
EXTT16=
EXTT17=
PLAYORDER=
